<svg width="32" height="32" viewBox="0 0 32 32" fill="none" xmlns="http://www.w3.org/2000/svg">
<g id="Swap me">
<circle id="bg" cx="15.9998" cy="16.0001" r="13.3333" fill="white"/>
<path id="Vector" d="M15.9998 2.66675C13.3628 2.66675 10.7849 3.44873 8.59224 4.91382C6.39958 6.37891 4.69062 8.46129 3.68145 10.8976C2.67228 13.334 2.40824 16.0149 2.92271 18.6013C3.43718 21.1877 4.70705 23.5635 6.57175 25.4282C8.43645 27.2929 10.8122 28.5627 13.3986 29.0772C15.9851 29.5917 18.6659 29.3276 21.1023 28.3185C23.5386 27.3093 25.621 25.6003 27.0861 23.4077C28.5512 21.215 29.3332 18.6372 29.3332 16.0001C29.3332 14.2491 28.9883 12.5153 28.3182 10.8976C27.6482 9.27996 26.666 7.81011 25.4279 6.57199C24.1898 5.33388 22.72 4.35175 21.1023 3.68169C19.4846 3.01162 17.7508 2.66675 15.9998 2.66675ZM22.9465 12.9467L14.9465 20.9467C14.8226 21.0717 14.6751 21.1709 14.5126 21.2386C14.3501 21.3063 14.1759 21.3411 13.9998 21.3411C13.8238 21.3411 13.6496 21.3063 13.4871 21.2386C13.3246 21.1709 13.1771 21.0717 13.0532 20.9467L9.05318 16.9467C8.92886 16.8224 8.83024 16.6748 8.76296 16.5124C8.69568 16.35 8.66105 16.1759 8.66105 16.0001C8.66105 15.645 8.8021 15.3045 9.05318 15.0534C9.30425 14.8023 9.64477 14.6613 9.99984 14.6613C10.3549 14.6613 10.6954 14.8023 10.9465 15.0534L13.9998 18.1201L21.0532 11.0534C21.3042 10.8023 21.6448 10.6613 21.9998 10.6613C22.3549 10.6613 22.6954 10.8023 22.9465 11.0534C23.1976 11.3045 23.3386 11.645 23.3386 12.0001C23.3386 12.3552 23.1976 12.6957 22.9465 12.9467Z" fill="#25AB21"/>
</g>
</svg>
