<svg width="16" height="16" viewBox="0 0 16 16" fill="none" xmlns="http://www.w3.org/2000/svg">
<circle cx="8.00016" cy="7.9987" r="6.66667" fill="white"/>
<path d="M8.00017 1.33203C6.68162 1.33203 5.39269 1.72302 4.29636 2.45557C3.20004 3.18811 2.34555 4.2293 1.84097 5.44747C1.33638 6.66565 1.20436 8.00609 1.4616 9.2993C1.71883 10.5925 2.35377 11.7804 3.28612 12.7127C4.21847 13.6451 5.40636 14.28 6.69956 14.5373C7.99277 14.7945 9.33322 14.6625 10.5514 14.1579C11.7696 13.6533 12.8108 12.7988 13.5433 11.7025C14.2758 10.6062 14.6668 9.31724 14.6668 7.9987C14.6668 7.12322 14.4944 6.25631 14.1594 5.44747C13.8243 4.63864 13.3333 3.90371 12.7142 3.28465C12.0952 2.6656 11.3602 2.17453 10.5514 1.8395C9.74255 1.50447 8.87565 1.33203 8.00017 1.33203ZM10.4735 9.52536C10.536 9.58734 10.5856 9.66107 10.6194 9.74231C10.6533 9.82355 10.6707 9.91069 10.6707 9.9987C10.6707 10.0867 10.6533 10.1738 10.6194 10.2551C10.5856 10.3363 10.536 10.4101 10.4735 10.472C10.4115 10.5345 10.3378 10.5841 10.2566 10.618C10.1753 10.6518 10.0882 10.6692 10.0002 10.6692C9.91216 10.6692 9.82502 10.6518 9.74378 10.618C9.66254 10.5841 9.58881 10.5345 9.52683 10.472L8.00017 8.9387L6.4735 10.472C6.41152 10.5345 6.33779 10.5841 6.25655 10.618C6.17531 10.6518 6.08817 10.6692 6.00017 10.6692C5.91216 10.6692 5.82502 10.6518 5.74378 10.618C5.66254 10.5841 5.58881 10.5345 5.52683 10.472C5.46435 10.4101 5.41475 10.3363 5.38091 10.2551C5.34706 10.1738 5.32963 10.0867 5.32963 9.9987C5.32963 9.91069 5.34706 9.82355 5.38091 9.74231C5.41475 9.66107 5.46435 9.58734 5.52683 9.52536L7.06017 7.9987L5.52683 6.47203C5.4013 6.3465 5.33077 6.17623 5.33077 5.9987C5.33077 5.82116 5.4013 5.6509 5.52683 5.52536C5.65237 5.39983 5.82263 5.3293 6.00017 5.3293C6.1777 5.3293 6.34796 5.39983 6.4735 5.52536L8.00017 7.0587L9.52683 5.52536C9.65237 5.39983 9.82263 5.3293 10.0002 5.3293C10.1777 5.3293 10.348 5.39983 10.4735 5.52536C10.599 5.6509 10.6696 5.82116 10.6696 5.9987C10.6696 6.17623 10.599 6.3465 10.4735 6.47203L8.94017 7.9987L10.4735 9.52536Z" fill="#F50031"/>
</svg>
