<svg width="16" height="16" viewBox="0 0 16 16" fill="none" xmlns="http://www.w3.org/2000/svg">
<g id="ic_error_colored">
<circle id="bg" cx="7.99992" cy="8.00004" r="6.66667" fill="white"/>
<path id="Vector" d="M7.99992 1.33337C6.68138 1.33337 5.39245 1.72437 4.29612 2.45691C3.19979 3.18945 2.34531 4.23064 1.84072 5.44882C1.33614 6.66699 1.20412 8.00744 1.46135 9.30064C1.71859 10.5938 2.35353 11.7817 3.28588 12.7141C4.21823 13.6464 5.40611 14.2814 6.69932 14.5386C7.99253 14.7958 9.33297 14.6638 10.5511 14.1592C11.7693 13.6547 12.8105 12.8002 13.5431 11.7038C14.2756 10.6075 14.6666 9.31858 14.6666 8.00004C14.6666 7.12456 14.4942 6.25766 14.1591 5.44882C13.8241 4.63998 13.333 3.90505 12.714 3.286C12.0949 2.66694 11.36 2.17588 10.5511 1.84084C9.74231 1.50581 8.8754 1.33337 7.99992 1.33337ZM10.4733 9.52671C10.5357 9.58868 10.5853 9.66242 10.6192 9.74366C10.653 9.8249 10.6705 9.91203 10.6705 10C10.6705 10.088 10.653 10.1752 10.6192 10.2564C10.5853 10.3377 10.5357 10.4114 10.4733 10.4734C10.4113 10.5359 10.3375 10.5855 10.2563 10.6193C10.1751 10.6531 10.0879 10.6706 9.99992 10.6706C9.91191 10.6706 9.82478 10.6531 9.74354 10.6193C9.6623 10.5855 9.58856 10.5359 9.52659 10.4734L7.99992 8.94004L6.47326 10.4734C6.41128 10.5359 6.33755 10.5855 6.25631 10.6193C6.17507 10.6531 6.08793 10.6706 5.99992 10.6706C5.91191 10.6706 5.82478 10.6531 5.74354 10.6193C5.6623 10.5855 5.58856 10.5359 5.52659 10.4734C5.4641 10.4114 5.41451 10.3377 5.38066 10.2564C5.34682 10.1752 5.32939 10.088 5.32939 10C5.32939 9.91203 5.34682 9.8249 5.38066 9.74366C5.41451 9.66242 5.4641 9.58868 5.52659 9.52671L7.05992 8.00004L5.52659 6.47337C5.40105 6.34784 5.33053 6.17758 5.33053 6.00004C5.33053 5.82251 5.40105 5.65224 5.52659 5.52671C5.65212 5.40117 5.82239 5.33065 5.99992 5.33065C6.17746 5.33065 6.34772 5.40117 6.47326 5.52671L7.99992 7.06004L9.52659 5.52671C9.65212 5.40117 9.82239 5.33065 9.99992 5.33065C10.1775 5.33065 10.3477 5.40117 10.4733 5.52671C10.5988 5.65224 10.6693 5.82251 10.6693 6.00004C10.6693 6.17758 10.5988 6.34784 10.4733 6.47337L8.93992 8.00004L10.4733 9.52671Z" fill="#F50031"/>
</g>
</svg>
