<svg width="16" height="16" viewBox="0 0 16 16" fill="none" xmlns="http://www.w3.org/2000/svg">
<g id="Swap me">
<path id="Vector" d="M13.0003 2.99967C12.5578 2.55837 11.9585 2.31055 11.3336 2.31055C10.7087 2.31055 10.1093 2.55837 9.66692 2.99967L9.47359 3.19301L12.8069 6.52634L13.0003 6.33301C13.4416 5.89059 13.6894 5.29122 13.6894 4.66634C13.6894 4.04146 13.4416 3.44209 13.0003 2.99967ZM3.70026 8.99967C3.46043 9.24079 3.28605 9.53907 3.19359 9.86634L2.52692 12.2997C2.48674 12.4662 2.49001 12.6402 2.53641 12.8051C2.58281 12.97 2.67079 13.1202 2.79192 13.2413C2.91304 13.3625 3.06325 13.4504 3.22814 13.4969C3.39303 13.5433 3.56707 13.5465 3.73359 13.5063L6.16692 12.8063C6.49419 12.7139 6.79248 12.5395 7.03359 12.2997L11.8603 7.47301L8.52692 4.13967L3.70026 8.99967Z" fill="#595959"/>
</g>
</svg>
