<svg width="18" height="18" viewBox="0 0 18 18" fill="none" xmlns="http://www.w3.org/2000/svg">
<g id="Swap me">
<path id="Vector" d="M14.6249 3.37683C14.1272 2.88037 13.4529 2.60156 12.7499 2.60156C12.0469 2.60156 11.3726 2.88037 10.8749 3.37683L10.6574 3.59433L14.4074 7.34433L14.6249 7.12683C15.1214 6.62911 15.4002 5.95482 15.4002 5.25183C15.4002 4.54884 15.1214 3.87454 14.6249 3.37683ZM4.16242 10.1268C3.89262 10.3981 3.69644 10.7337 3.59242 11.1018L2.84242 13.8393C2.79722 14.0267 2.8009 14.2225 2.8531 14.408C2.9053 14.5935 3.00428 14.7624 3.14054 14.8987C3.2768 15.035 3.44579 15.134 3.63129 15.1862C3.81679 15.2384 4.01259 15.242 4.19992 15.1968L6.93742 14.4093C7.3056 14.3053 7.64117 14.1091 7.91242 13.8393L13.3424 8.40933L9.59242 4.65933L4.16242 10.1268Z" fill="#CACACA"/>
</g>
</svg>
