<svg width="17" height="16" viewBox="0 0 17 16" fill="none" xmlns="http://www.w3.org/2000/svg">
<path d="M13.8333 3.99967H12.5V3.33301C12.5 2.80257 12.2893 2.29387 11.9142 1.91879C11.5391 1.54372 11.0304 1.33301 10.5 1.33301H6.5C5.96957 1.33301 5.46086 1.54372 5.08579 1.91879C4.71071 2.29387 4.5 2.80257 4.5 3.33301V3.99967H3.16667C2.98986 3.99967 2.82029 4.06991 2.69526 4.19494C2.57024 4.31996 2.5 4.48953 2.5 4.66634C2.5 4.84315 2.57024 5.01272 2.69526 5.13775C2.82029 5.26277 2.98986 5.33301 3.16667 5.33301H3.83333V12.6663C3.83333 13.1968 4.04405 13.7055 4.41912 14.0806C4.79419 14.4556 5.3029 14.6663 5.83333 14.6663H11.1667C11.6971 14.6663 12.2058 14.4556 12.5809 14.0806C12.956 13.7055 13.1667 13.1968 13.1667 12.6663V5.33301H13.8333C14.0101 5.33301 14.1797 5.26277 14.3047 5.13775C14.4298 5.01272 14.5 4.84315 14.5 4.66634C14.5 4.48953 14.4298 4.31996 14.3047 4.19494C14.1797 4.06991 14.0101 3.99967 13.8333 3.99967ZM6.5 11.9997C6.5 12.1765 6.42976 12.3461 6.30474 12.4711C6.17971 12.5961 6.01014 12.6663 5.83333 12.6663C5.65652 12.6663 5.48695 12.5961 5.36193 12.4711C5.2369 12.3461 5.16667 12.1765 5.16667 11.9997V7.33301C5.16667 7.1562 5.2369 6.98663 5.36193 6.8616C5.48695 6.73658 5.65652 6.66634 5.83333 6.66634C6.01014 6.66634 6.17971 6.73658 6.30474 6.8616C6.42976 6.98663 6.5 7.1562 6.5 7.33301V11.9997ZM9.16667 11.9997C9.16667 12.1765 9.09643 12.3461 8.9714 12.4711C8.84638 12.5961 8.67681 12.6663 8.5 12.6663C8.32319 12.6663 8.15362 12.5961 8.0286 12.4711C7.90357 12.3461 7.83333 12.1765 7.83333 11.9997V7.33301C7.83333 7.1562 7.90357 6.98663 8.0286 6.8616C8.15362 6.73658 8.32319 6.66634 8.5 6.66634C8.67681 6.66634 8.84638 6.73658 8.9714 6.8616C9.09643 6.98663 9.16667 7.1562 9.16667 7.33301V11.9997ZM11.8333 11.9997C11.8333 12.1765 11.7631 12.3461 11.6381 12.4711C11.513 12.5961 11.3435 12.6663 11.1667 12.6663C10.9899 12.6663 10.8203 12.5961 10.6953 12.4711C10.5702 12.3461 10.5 12.1765 10.5 11.9997V7.33301C10.5 7.1562 10.5702 6.98663 10.6953 6.8616C10.8203 6.73658 10.9899 6.66634 11.1667 6.66634C11.3435 6.66634 11.513 6.73658 11.6381 6.8616C11.7631 6.98663 11.8333 7.1562 11.8333 7.33301V11.9997ZM5.83333 3.33301C5.83333 3.1562 5.90357 2.98663 6.0286 2.8616C6.15362 2.73658 6.32319 2.66634 6.5 2.66634H10.5C10.6768 2.66634 10.8464 2.73658 10.9714 2.8616C11.0964 2.98663 11.1667 3.1562 11.1667 3.33301V3.99967H5.83333V3.33301Z" fill="black"/>
</svg>
