<svg width="16" height="16" viewBox="0 0 16 16" fill="none" xmlns="http://www.w3.org/2000/svg">
<path d="M11.913 2.60536C11.8422 2.55353 11.7618 2.5162 11.6765 2.49552C11.5912 2.47483 11.5026 2.4712 11.4159 2.48482C11.3292 2.49845 11.246 2.52907 11.1711 2.57493C11.0963 2.62078 11.0312 2.68097 10.9797 2.75203C10.9278 2.82288 10.8905 2.90326 10.8698 2.98858C10.8491 3.07389 10.8455 3.16244 10.8591 3.24916C10.8728 3.33588 10.9034 3.41906 10.9492 3.49391C10.9951 3.56877 11.0553 3.63383 11.1263 3.68536C12.0395 4.34616 12.7198 5.27927 13.0696 6.35076C13.4195 7.42225 13.4208 8.57702 13.0735 9.64934C12.7262 10.7217 12.0481 11.6564 11.1366 12.3193C10.225 12.9823 9.12683 13.3394 7.99967 13.3394C6.87252 13.3394 5.77435 12.9823 4.86277 12.3193C3.9512 11.6564 3.27311 10.7217 2.92581 9.64934C2.57852 8.57702 2.57989 7.42225 2.92972 6.35076C3.27956 5.27927 3.95987 4.34616 4.87301 3.68536C5.01622 3.58105 5.11214 3.42411 5.13964 3.24907C5.16715 3.07404 5.12399 2.89525 5.01967 2.75203C4.91536 2.60881 4.75842 2.5129 4.58338 2.4854C4.40835 2.45789 4.22956 2.50105 4.08634 2.60536C2.94611 3.4321 2.097 4.59872 1.6608 5.93788C1.2246 7.27705 1.22372 8.71996 1.6583 10.0596C2.09287 11.3993 2.94057 12.567 4.0798 13.3951C5.21903 14.2232 6.59126 14.6693 7.99967 14.6693C9.40809 14.6693 10.7803 14.2232 11.9196 13.3951C13.0588 12.567 13.9065 11.3993 14.3411 10.0596C14.7756 8.71996 14.7747 7.27705 14.3386 5.93788C13.9024 4.59872 13.0532 3.4321 11.913 2.60536ZM7.99967 5.33203C8.17649 5.33203 8.34606 5.26179 8.47108 5.13677C8.5961 5.01174 8.66634 4.84218 8.66634 4.66536V1.9987C8.66634 1.82189 8.5961 1.65232 8.47108 1.52729C8.34606 1.40227 8.17649 1.33203 7.99967 1.33203C7.82286 1.33203 7.65329 1.40227 7.52827 1.52729C7.40325 1.65232 7.33301 1.82189 7.33301 1.9987V4.66536C7.33301 4.84218 7.40325 5.01174 7.52827 5.13677C7.65329 5.26179 7.82286 5.33203 7.99967 5.33203Z" fill="#141414"/>
</svg>
